<svg xmlns="http://www.w3.org/2000/svg" width="155.595" height="61.687" viewBox="0 0 155.595 61.687"><path fill="#EC008C" d="M31.476 0l9.727 19.708 21.748 3.16-15.736 15.34L50.93 59.87 31.475 49.643 12.022 59.87l3.715-21.662L0 22.868l21.75-3.16z"/><path fill="#BE1E2D" d="M76.807 0l9.727 19.708 21.748 3.16-15.737 15.34L96.26 59.87 76.807 49.643 57.354 59.87l3.714-21.662-15.737-15.34 21.75-3.16z"/><path fill="#87163C" d="M123.23 0l9.727 19.708 21.75 3.16-15.74 15.34 3.716 21.662-19.453-10.227-19.453 10.227 3.715-21.662-15.738-15.34 21.75-3.16z"/></svg>