<?xml version="1.0" encoding="utf-8"?>
<!-- Generator: Adobe Illustrator 16.0.1, SVG Export Plug-In . SVG Version: 6.00 Build 0)  -->
<!DOCTYPE svg PUBLIC "-//W3C//DTD SVG 1.1//EN" "http://www.w3.org/Graphics/SVG/1.1/DTD/svg11.dtd">
<svg version="1.1" id="Layer_1" xmlns="http://www.w3.org/2000/svg" xmlns:xlink="http://www.w3.org/1999/xlink" x="0px" y="0px"
	 width="155.595px" height="61.687px" viewBox="0 0 155.595 61.687" enable-background="new 0 0 155.595 61.687"
	 xml:space="preserve">
<polygon fill="#EC008C" points="31.476,0 41.203,19.708 62.951,22.868 47.214,38.208 50.929,59.87 31.476,49.643 12.022,59.87 
	15.737,38.208 0,22.868 21.749,19.708 "/>
<polygon fill="#BE1E2D" points="76.807,0 86.534,19.708 108.282,22.868 92.545,38.208 96.26,59.87 76.807,49.643 57.354,59.87 
	61.068,38.208 45.331,22.868 67.08,19.708 "/>
<polygon fill="#87163C" points="123.23,0 132.957,19.708 154.706,22.868 138.968,38.208 142.683,59.87 123.23,49.643 103.777,59.87 
	107.492,38.208 91.754,22.868 113.503,19.708 "/>
</svg>
